# xmcd
#
# Track frame offsets: 
#        150
#        11172
#        18495
#        26607
#        36550
#        46667
#        56245
#        64702
#        74875
#        84202
#        91795
#        100580
#        107027
#        115210
#        126197
#        134647
#        145622
#        153752
#        164435
#        171635
#        182085
#        194302
#        206520
#        220282
#        227902
#        244017
#        255667
#        266347
#        276547
#        286777
#        294987
#        306890
#        312677
#        321315
#        330927
#
# Disc length: 4551 seconds
#
# Revision: 4
# Processed by: cddbd v1.5.2PL0 Copyright (c) Steve Scherf et al.
# Submitted via: ExactAudioCopy v1.3
#
DISCID=0d11c523
DTITLE=Various Artist - Dancemania Speed Super Best: Speed G
DYEAR=2003
DGENRE=Dance
TTITLE0=DJ SPEEDO - SEPTEMBER
TTITLE1=NANCY and THE BOYS - COMPLICATED
TTITLE2=CARLOS JEAN - MR. DABADA (Skyrock Speed Mix)
TTITLE3=WILDSIDE - HEAVEN IS A PLACE ON EARTH
TTITLE4=CJ CREW feat. FELLANY - I WANT IT THAT WAY
TTITLE5=CREAMY - I DO, I DO, I DO (KCP Remix)
TTITLE6=NAOKI - B4U (B4 ZA BEAT MIX)
TTITLE7=WILDSIDE - QUEEN OF LOVE
TTITLE8=WILDSIDE - IRRESISTIBLEMENT
TTITLE9=CONNIE AND THE PLAINSMAN - RISE TO THE OCCASION
TTITLE10=KING KONG and D. JUNGLE GIRLS - BOOM BOOM DOLLAR (K.O.G G3 Mix)
TTITLE11=CAPTAIN JACK - CAPTAIN JACK (Grandale Remix)
TTITLE12=NAOKI - STILL IN MY HEART (MOMO Mix)
TTITLE13=BARBIE YOUNG - CARTOON HEROES (Speedy Mix)
TTITLE14=THE ZIPPERS - HAPPINESS (Speed Mix)
TTITLE15=JENNY ROM - IKA UKA (E=MC2 Mix)
TTITLE16=SMILE.dk - BUTTERFLY (Upswing Mix)
TTITLE17=ROSE - SPEED OVER BEETHOVEN
TTITLE18=NANCY and THE BOYS - SURVIVOR
TTITLE19=DJ FADE - VORTEX
TTITLE20=VENTURA - LUPIN THE 3RD '78 (Speed K Mix)
TTITLE21=2 UNLIMITED - LET THE BEAT CONTROL YOUR BODY (B4 ZA BEAT SPEE
TTITLE21=D MIX)
TTITLE22=DJ MIKO - SKY HIGH (Speed Remix)
TTITLE23=E-ROTIC - MAX DON'T HAVE SEX WITH YOUR EX (Grandale Mix)
TTITLE24=ORLANDO - SMILE (Speedy Mix)
TTITLE25=DJ SPEEDO feat. ANGELICA - THERE YOU'LL BE
TTITLE26=STEALTH - LOVE, LIFE and HAPPINESS (Ham Mix)
TTITLE27=CAPTAIN JACK - CENTERFOLD (Speed Mix)
TTITLE28=JENNY ROM - SENORITA (Speedy Mix)
TTITLE29=MISSING HEART - MOONLIGHT SHADOW (KCP Remix)
TTITLE30=SPEEDMASTER feat. JENNY ROM - HAPPY TOYBOYS (Speed Mix)
TTITLE31=DJ KAMBEL VS MC MAGIKA - BLUE FEVER
TTITLE32=DJ KAMBEL VS MC MAGIKA - LAST NITE KAMBEL SAVED MY LIFE
TTITLE33=LUV UNLIMITED - CANDY☆ (Planet Remix)
TTITLE34=DJ SPEEDO feat. WILDSIDE - ASEREJE (Speed Mix)
EXTD=YEAR: 2003
EXTT0=
EXTT1=
EXTT2=
EXTT3=
EXTT4=
EXTT5=
EXTT6=
EXTT7=
EXTT8=
EXTT9=
EXTT10=
EXTT11=
EXTT12=
EXTT13=
EXTT14=
EXTT15=
EXTT16=
EXTT17=
EXTT18=
EXTT19=
EXTT20=
EXTT21=
EXTT22=
EXTT23=
EXTT24=
EXTT25=
EXTT26=
EXTT27=
EXTT28=
EXTT29=
EXTT30=
EXTT31=
EXTT32=
EXTT33=
EXTT34=
PLAYORDER=
